<svg width="805" height="804" viewBox="0 0 805 804" fill="none" xmlns="http://www.w3.org/2000/svg">
<g filter="url(#filter0_d_1_29)">
<circle cx="577.5" cy="223.5" r="223.5" fill="url(#paint0_linear_1_29)"/>
</g>
<g filter="url(#filter1_d_1_29)">
<path fill-rule="evenodd" clip-rule="evenodd" d="M423 522C451.704 522 478.707 513.617 502.26 498.863C523.265 514.725 548.654 524 576 524C595.174 524 613.385 519.441 629.798 511.248C642.034 518.082 656.286 522 671.5 522C717.063 522 754 486.854 754 443.5C754 412.191 734.737 385.163 706.873 372.562C703.83 295.468 646.4 234 576 234C572.715 234 569.458 234.134 566.233 234.397C537.397 177.916 484.047 140 423 140C361.75 140 308.247 178.169 279.479 234.962C274.594 234.329 269.591 234 264.5 234C213.906 234 172.131 266.449 165.823 308.449C132.922 322.984 107.386 345.151 94.1098 371.469C78.7985 378.287 65.8983 390.101 57.1671 405.022C56.6135 405.007 56.0578 405 55.5 405C27.0573 405 4 423.804 4 447C4 469.645 25.9746 488.104 53.4818 488.968C66.5729 516.867 93.4589 536 124.5 536C141.902 536 157.999 529.987 171.09 519.787C196.403 530.102 225.733 536 257 536C297.43 536 334.621 526.14 364.074 509.617C382.387 517.619 402.249 522 423 522Z" fill="white"/>
</g>
<g filter="url(#filter2_d_1_29)">
<path d="M161.251 622C161.251 631.941 151.941 640 142 640C132.059 640 124 631.941 124 622C124 614.209 132.139 591.606 137.945 579.785C139.699 576.214 143.942 576.432 145.717 579.993C151.86 592.322 161.251 614 161.251 622Z" fill="#6ED5DC"/>
</g>
<g filter="url(#filter3_d_1_29)">
<path d="M379.251 778C379.251 787.941 369.941 796 360 796C350.059 796 342 787.941 342 778C342 770.209 350.139 747.606 355.945 735.785C357.699 732.214 361.942 732.432 363.717 735.993C369.86 748.322 379.251 770 379.251 778Z" fill="#6ED5DC"/>
</g>
<g filter="url(#filter4_d_1_29)">
<path d="M578.251 622C578.251 631.941 568.941 640 559 640C549.059 640 541 631.941 541 622C541 614.209 549.139 591.606 554.945 579.785C556.699 576.214 560.942 576.432 562.717 579.993C568.86 592.322 578.251 614 578.251 622Z" fill="#6ED5DC"/>
</g>
<g filter="url(#filter5_d_1_29)">
<path d="M379.251 622C379.251 631.941 369.941 640 360 640C350.059 640 342 631.941 342 622C342 614.209 350.139 591.606 355.945 579.785C357.699 576.214 361.942 576.432 363.717 579.993C369.86 592.322 379.251 614 379.251 622Z" fill="#6ED5DC"/>
</g>
<g filter="url(#filter6_d_1_29)">
<path d="M491.251 692C491.251 701.941 481.941 710 472 710C462.059 710 454 701.941 454 692C454 684.209 462.139 661.606 467.945 649.785C469.699 646.214 473.942 646.432 475.717 649.993C481.86 662.322 491.251 684 491.251 692Z" fill="#6ED5DC"/>
</g>
<g filter="url(#filter7_d_1_29)">
<path d="M266.251 692C266.251 701.941 256.941 710 247 710C237.059 710 229 701.941 229 692C229 684.209 237.139 661.606 242.945 649.785C244.699 646.214 248.942 646.432 250.717 649.993C256.86 662.322 266.251 684 266.251 692Z" fill="#6ED5DC"/>
</g>
<defs>
<filter id="filter0_d_1_29" x="350" y="0" width="455" height="455" filterUnits="userSpaceOnUse" color-interpolation-filters="sRGB">
<feFlood flood-opacity="0" result="BackgroundImageFix"/>
<feColorMatrix in="SourceAlpha" type="matrix" values="0 0 0 0 0 0 0 0 0 0 0 0 0 0 0 0 0 0 127 0" result="hardAlpha"/>
<feOffset dy="4"/>
<feGaussianBlur stdDeviation="2"/>
<feComposite in2="hardAlpha" operator="out"/>
<feColorMatrix type="matrix" values="0 0 0 0 0 0 0 0 0 0 0 0 0 0 0 0 0 0 0.25 0"/>
<feBlend mode="normal" in2="BackgroundImageFix" result="effect1_dropShadow_1_29"/>
<feBlend mode="normal" in="SourceGraphic" in2="effect1_dropShadow_1_29" result="shape"/>
</filter>
<filter id="filter1_d_1_29" x="0" y="140" width="758" height="404" filterUnits="userSpaceOnUse" color-interpolation-filters="sRGB">
<feFlood flood-opacity="0" result="BackgroundImageFix"/>
<feColorMatrix in="SourceAlpha" type="matrix" values="0 0 0 0 0 0 0 0 0 0 0 0 0 0 0 0 0 0 127 0" result="hardAlpha"/>
<feOffset dy="4"/>
<feGaussianBlur stdDeviation="2"/>
<feComposite in2="hardAlpha" operator="out"/>
<feColorMatrix type="matrix" values="0 0 0 0 0 0 0 0 0 0 0 0 0 0 0 0 0 0 0.25 0"/>
<feBlend mode="normal" in2="BackgroundImageFix" result="effect1_dropShadow_1_29"/>
<feBlend mode="normal" in="SourceGraphic" in2="effect1_dropShadow_1_29" result="shape"/>
</filter>
<filter id="filter2_d_1_29" x="120" y="577.212" width="45.2511" height="70.7877" filterUnits="userSpaceOnUse" color-interpolation-filters="sRGB">
<feFlood flood-opacity="0" result="BackgroundImageFix"/>
<feColorMatrix in="SourceAlpha" type="matrix" values="0 0 0 0 0 0 0 0 0 0 0 0 0 0 0 0 0 0 127 0" result="hardAlpha"/>
<feOffset dy="4"/>
<feGaussianBlur stdDeviation="2"/>
<feComposite in2="hardAlpha" operator="out"/>
<feColorMatrix type="matrix" values="0 0 0 0 0 0 0 0 0 0 0 0 0 0 0 0 0 0 0.25 0"/>
<feBlend mode="normal" in2="BackgroundImageFix" result="effect1_dropShadow_1_29"/>
<feBlend mode="normal" in="SourceGraphic" in2="effect1_dropShadow_1_29" result="shape"/>
</filter>
<filter id="filter3_d_1_29" x="338" y="733.212" width="45.2511" height="70.7877" filterUnits="userSpaceOnUse" color-interpolation-filters="sRGB">
<feFlood flood-opacity="0" result="BackgroundImageFix"/>
<feColorMatrix in="SourceAlpha" type="matrix" values="0 0 0 0 0 0 0 0 0 0 0 0 0 0 0 0 0 0 127 0" result="hardAlpha"/>
<feOffset dy="4"/>
<feGaussianBlur stdDeviation="2"/>
<feComposite in2="hardAlpha" operator="out"/>
<feColorMatrix type="matrix" values="0 0 0 0 0 0 0 0 0 0 0 0 0 0 0 0 0 0 0.25 0"/>
<feBlend mode="normal" in2="BackgroundImageFix" result="effect1_dropShadow_1_29"/>
<feBlend mode="normal" in="SourceGraphic" in2="effect1_dropShadow_1_29" result="shape"/>
</filter>
<filter id="filter4_d_1_29" x="537" y="577.212" width="45.2511" height="70.7877" filterUnits="userSpaceOnUse" color-interpolation-filters="sRGB">
<feFlood flood-opacity="0" result="BackgroundImageFix"/>
<feColorMatrix in="SourceAlpha" type="matrix" values="0 0 0 0 0 0 0 0 0 0 0 0 0 0 0 0 0 0 127 0" result="hardAlpha"/>
<feOffset dy="4"/>
<feGaussianBlur stdDeviation="2"/>
<feComposite in2="hardAlpha" operator="out"/>
<feColorMatrix type="matrix" values="0 0 0 0 0 0 0 0 0 0 0 0 0 0 0 0 0 0 0.25 0"/>
<feBlend mode="normal" in2="BackgroundImageFix" result="effect1_dropShadow_1_29"/>
<feBlend mode="normal" in="SourceGraphic" in2="effect1_dropShadow_1_29" result="shape"/>
</filter>
<filter id="filter5_d_1_29" x="338" y="577.212" width="45.2511" height="70.7877" filterUnits="userSpaceOnUse" color-interpolation-filters="sRGB">
<feFlood flood-opacity="0" result="BackgroundImageFix"/>
<feColorMatrix in="SourceAlpha" type="matrix" values="0 0 0 0 0 0 0 0 0 0 0 0 0 0 0 0 0 0 127 0" result="hardAlpha"/>
<feOffset dy="4"/>
<feGaussianBlur stdDeviation="2"/>
<feComposite in2="hardAlpha" operator="out"/>
<feColorMatrix type="matrix" values="0 0 0 0 0 0 0 0 0 0 0 0 0 0 0 0 0 0 0.25 0"/>
<feBlend mode="normal" in2="BackgroundImageFix" result="effect1_dropShadow_1_29"/>
<feBlend mode="normal" in="SourceGraphic" in2="effect1_dropShadow_1_29" result="shape"/>
</filter>
<filter id="filter6_d_1_29" x="450" y="647.212" width="45.2511" height="70.7877" filterUnits="userSpaceOnUse" color-interpolation-filters="sRGB">
<feFlood flood-opacity="0" result="BackgroundImageFix"/>
<feColorMatrix in="SourceAlpha" type="matrix" values="0 0 0 0 0 0 0 0 0 0 0 0 0 0 0 0 0 0 127 0" result="hardAlpha"/>
<feOffset dy="4"/>
<feGaussianBlur stdDeviation="2"/>
<feComposite in2="hardAlpha" operator="out"/>
<feColorMatrix type="matrix" values="0 0 0 0 0 0 0 0 0 0 0 0 0 0 0 0 0 0 0.25 0"/>
<feBlend mode="normal" in2="BackgroundImageFix" result="effect1_dropShadow_1_29"/>
<feBlend mode="normal" in="SourceGraphic" in2="effect1_dropShadow_1_29" result="shape"/>
</filter>
<filter id="filter7_d_1_29" x="225" y="647.212" width="45.2511" height="70.7877" filterUnits="userSpaceOnUse" color-interpolation-filters="sRGB">
<feFlood flood-opacity="0" result="BackgroundImageFix"/>
<feColorMatrix in="SourceAlpha" type="matrix" values="0 0 0 0 0 0 0 0 0 0 0 0 0 0 0 0 0 0 127 0" result="hardAlpha"/>
<feOffset dy="4"/>
<feGaussianBlur stdDeviation="2"/>
<feComposite in2="hardAlpha" operator="out"/>
<feColorMatrix type="matrix" values="0 0 0 0 0 0 0 0 0 0 0 0 0 0 0 0 0 0 0.25 0"/>
<feBlend mode="normal" in2="BackgroundImageFix" result="effect1_dropShadow_1_29"/>
<feBlend mode="normal" in="SourceGraphic" in2="effect1_dropShadow_1_29" result="shape"/>
</filter>
<linearGradient id="paint0_linear_1_29" x1="770" y1="95.5" x2="577.5" y2="447" gradientUnits="userSpaceOnUse">
<stop stop-color="#FFFCDF"/>
<stop offset="0.729843" stop-color="#DDBC57"/>
<stop offset="1" stop-color="#CD9238"/>
</linearGradient>
</defs>
</svg>
